:SAMPLES-PER-SECOND 30
:FULLY-SPECIFIED
:DEGREES
558
root  -43.8772 41.2197 -22.3256 -160.343 -87.7592 156.255
RightUpLeg  -1.45016 -10.0362 -10.6461
RightLeg  3.46711 -7.72605 2.1526
RightFoot  5.44629 -0.181992 1.48584
RightToes  0.000482159 0.542163 -0.142577
Spine  9.50454 -1.74463 -2.10493
Spine1  25.562 -3.49605 2.99387
HEad  52.2209 -10.4817 -7.03904
LeftShoulder1  8.11628 -13.2868 -41.9632
LeftArm  -10.4197 12.8913 -30.3759
LeftForeArm  23.9613 -30.6985 -5.3672
LeftHand  -0.25398 0.0180481 5.50724
RightShoulder  5.36885 9.40959 35.6038
RightArm  -4.01291 -14.2931 32.2422
RightForeArm  -5.23289 42.362 10.5432
RightHand  -1.40444 1.94788 -22.2085
LeftUpLeg  4.50691 3.73622 -3.08211
LeftLeg  -2.03777 30.7562 -6.49271
LeftFoot  -1.43215 -0.685968 7.99597
LeftToes  1.06247e-005 4.65855e-005 -8.18504e-006
559
root  -43.8536 41.214 -22.2773 -163.449 -87.3176 159.399
RightUpLeg  -1.59112 -10.0646 -10.6975
RightLeg  3.33838 -7.23448 2.18367
RightFoot  5.59893 -0.195346 1.56898
RightToes  0.000482159 0.542163 -0.142577
Spine  9.27213 -1.83705 -2.29536
Spine1  25.564 -3.65698 3.10172
HEad  52.4878 -11.1188 -7.16253
LeftShoulder1  8.01506 -13.1551 -41.7534
LeftArm  -11.0656 12.6731 -30.2474
LeftForeArm  23.9554 -31.3747 -5.5296
LeftHand  -0.25398 0.0180481 5.50724
RightShoulder  5.34175 9.37622 35.5031
RightArm  -4.47707 -14.4966 32.1696
RightForeArm  -3.93709 44.4269 11.2415
RightHand  -1.31889 1.54136 -22.0606
LeftUpLeg  4.43299 3.63144 -3.23728
LeftLeg  -2.09686 31.3417 -6.4796
LeftFoot  -1.44982 -0.685505 8.0011
LeftToes  1.06247e-005 4.65855e-005 -8.18504e-006
560
root  -43.8443 41.212 -22.246 -165.702 -86.7591 161.64
RightUpLeg  -1.65784 -10.0741 -10.7456
RightLeg  3.16351 -6.67813 2.19999
RightFoot  5.76975 -0.209815 1.65703
RightToes  0.000482159 0.542163 -0.142577
Spine  9.16965 -1.84753 -2.5165
Spine1  25.4188 -3.76283 3.30874
HEad  52.7687 -11.5164 -7.43151
LeftShoulder1  7.9799 -13.1281 -41.6288
LeftArm  -11.3299 12.6616 -30.0883
LeftForeArm  23.4575 -31.7198 -5.64163
LeftHand  -0.25398 0.0180481 5.50724
RightShoulder  5.31726 9.37112 35.3327
RightArm  -4.80028 -14.6511 32.2189
RightForeArm  -2.89493 45.6026 11.6456
RightHand  -1.26154 1.30172 -21.8496
LeftUpLeg  4.49639 3.53939 -3.38564
LeftLeg  -2.2989 31.9822 -6.56439
LeftFoot  -1.43102 -0.687006 7.99791
LeftToes  1.06247e-005 4.65855e-005 -8.18504e-006
561
root  -43.8464 41.2132 -22.2267 -167.828 -86.1814 163.802
RightUpLeg  -1.72412 -10.0505 -10.7315
RightLeg  2.91446 -6.18178 2.23093
RightFoot  5.99447 -0.224566 1.74217
RightToes  0.000482159 0.542163 -0.142577
Spine  8.9224 -1.82456 -2.66045
Spine1  25.4443 -3.81746 3.49416
HEad  52.9153 -11.7428 -7.78472
LeftShoulder1  7.99301 -13.1568 -41.6251
LeftArm  -11.0926 12.5717 -29.8044
LeftForeArm  22.6605 -31.66 -5.67246
LeftHand  -0.25398 0.0180481 5.50724
RightShoulder  5.30124 9.36746 35.222
RightArm  -4.94258 -14.5826 32.3193
RightForeArm  -2.54538 45.8655 11.7317
RightHand  -1.24239 1.26605 -21.6384
LeftUpLeg  4.54424 3.5111 -3.45477
LeftLeg  -2.53588 32.5436 -6.72238
LeftFoot  -1.43447 -0.695215 8.09121
LeftToes  1.06247e-005 4.65855e-005 -8.18504e-006
562
root  -43.8605 41.2161 -22.2089 -169.982 -85.6562 165.987
RightUpLeg  -1.70689 -10.0395 -10.6947
RightLeg  2.57985 -5.69094 2.32419
RightFoot  6.25925 -0.235051 1.79514
RightToes  0.000482159 0.542163 -0.142577
Spine  8.57467 -1.85335 -2.55622
Spine1  25.6544 -3.79753 3.39294
HEad  52.9343 -11.9507 -7.99655
LeftShoulder1  7.97482 -13.131 -41.5923
LeftArm  -10.8437 12.3584 -29.6629
LeftForeArm  21.9628 -31.1675 -5.59254
LeftHand  -0.25398 0.0180481 5.50724
RightShoulder  5.30954 9.35924 35.3113
RightArm  -4.78898 -14.2479 32.345
RightForeArm  -3.04092 45.2534 11.5152
RightHand  -1.29477 1.54898 -21.6457
LeftUpLeg  4.59362 3.51095 -3.46492
LeftLeg  -2.71584 33.0666 -6.83532
LeftFoot  -1.45139 -0.704551 8.22373
LeftToes  1.06247e-005 4.65855e-005 -8.18504e-006
563
root  -43.8869 41.2209 -22.1936 -171.893 -85.2147 167.837
RightUpLeg  -1.5017 -10.0567 -10.6799
RightLeg  2.16001 -5.21123 2.46524
RightFoot  6.51785 -0.244201 1.83819
RightToes  0.000482159 0.542163 -0.142577
Spine  8.3594 -1.92214 -2.29939
Spine1  25.7645 -3.76844 3.18368
HEad  52.96 -12.1782 -8.10831
LeftShoulder1  7.92784 -13.0483 -41.551
LeftArm  -10.7387 12.2004 -29.8382
LeftForeArm  21.3468 -30.2018 -5.3961
LeftHand  -0.25398 0.0180481 5.50724
RightShoulder  5.30707 9.32529 35.3995
RightArm  -4.53902 -13.8961 32.4388
RightForeArm  -3.82558 43.9814 11.0636
RightHand  -1.37938 1.96424 -21.7774
LeftUpLeg  4.73386 3.48795 -3.46388
LeftLeg  -2.81567 33.5566 -6.83413
LeftFoot  -1.46635 -0.698918 8.177
LeftToes  1.06247e-005 4.65855e-005 -8.18504e-006
564
root  -43.9227 41.2269 -22.1904 -173.132 -84.8742 168.992
RightUpLeg  -1.23309 -10.0843 -10.6857
RightLeg  1.76473 -4.85795 2.59267
RightFoot  6.67743 -0.267192 1.97363
RightToes  0.000482159 0.542163 -0.142577
Spine  8.24258 -1.9649 -2.14458
Spine1  25.6829 -3.81832 3.22369
HEad  53.0847 -12.315 -8.34567
LeftShoulder1  7.91655 -12.9771 -41.6802
LeftArm  -10.3883 12.2396 -30.1143
LeftForeArm  20.5334 -28.956 -5.14914
LeftHand  -0.25398 0.0180481 5.50724
RightShoulder  5.27434 9.26797 35.3303
RightArm  -4.57779 -13.8088 32.7338
RightForeArm  -4.25355 42.4446 10.5133
RightHand  -1.42019 2.21174 -21.7058
LeftUpLeg  4.90483 3.4749 -3.45262
LeftLeg  -2.8683 33.8877 -6.81463
LeftFoot  -1.5192 -0.680074 8.00761
LeftToes  1.06247e-005 4.65855e-005 -8.18504e-006
565
root  -43.9676 41.2311 -22.2038 -173.58 -84.6226 169.449
RightUpLeg  -1.11766 -10.0994 -10.6865
RightLeg  1.57001 -4.64948 2.65467
RightFoot  6.65418 -0.306337 2.22256
RightToes  0.000482159 0.542163 -0.142577
Spine  7.97915 -1.98344 -2.13707
Spine1  25.6184 -3.90171 3.39627
HEad  53.2617 -12.2892 -8.6059
LeftShoulder1  7.9409 -12.9271 -41.9547
LeftArm  -9.62432 12.5041 -30.2495
LeftForeArm  19.6015 -27.8039 -4.93622
LeftHand  -0.25398 0.0180481 5.50724
RightShoulder  5.27852 9.25143 35.4148
RightArm  -4.85761 -13.9773 32.98
RightForeArm  -4.48428 40.9107 9.98277
RightHand  -1.41726 2.30727 -21.4066
LeftUpLeg  4.9976 3.53381 -3.40725
LeftLeg  -2.92453 34.042 -6.9037
LeftFoot  -1.60659 -0.674227 8.01764
LeftToes  1.06247e-005 4.65855e-005 -8.18504e-006
